# File produced by Open Asset Import Library (http://www.assimp.sf.net)
# (assimp v3.1.151580502)

mtllib ACROBOOK.mtl

# 32 vertex positions
v  -18.5892 2 -30
v  -18.5892 2 30
v  21 1.99999 30
v  21 1.99999 -30
v  21 1.8333 30
v  21 1.8333 -30
v  -18.5892 3.93391e-06 30
v  -18.5892 3.93391e-06 -30
v  21 -2.44379e-06 -30
v  21 -2.44379e-06 30
v  -18.5892 0.166691 30
v  21 0.166684 30
v  -19 4.05312e-06 -30
v  -18.9059 0.166691 -30
v  -18.5892 0.166691 -30
v  -18.9059 0.166691 30
v  -19 4.05312e-06 30
v  -18.5892 1.83331 30
v  21 0.166684 -30
v  -19 2 -30
v  -19 2 30
v  -18.9059 1.83331 30
v  -18.5892 1.83331 -30
v  -18.9059 1.83331 -30
v  20.8486 0.173078 -29.7698
v  20.8486 1.82691 -29.7698
v  20.8486 1.82691 29.7698
v  20.8486 0.173078 29.7698
v  -18.4082 1.82692 29.7698
v  -18.4082 0.173084 29.7698
v  -18.4082 1.82692 -29.7698
v  -18.4082 0.173084 -29.7698

# 80 UV coordinates
vt 0.560612 0.970631 0
vt 0.0523183 0.970631 0
vt 0.0523183 0.635249 0
vt 0.560612 0.635249 0
vt 0.731214 0.518743 0
vt 0.731214 0.239353 0
vt 0.736089 0.239424 0
vt 0.736089 0.518815 0
vt 0.515895 0.358265 0
vt 0.00760083 0.358265 0
vt 0.00760083 0.0228822 0
vt 0.515895 0.0228822 0
vt 0.679723 0.480206 0
vt 0.675525 0.48024 0
vt 0.675607 0.239751 0
vt 0.679804 0.239718 0
vt 0.527286 0.160592 0
vt 0.527418 0.158684 0
vt 0.532907 0.158811 0
vt 0.532324 0.16109 0
vt 0.679804 0.490551 0
vt 0.675607 0.490584 0
vt 0.725885 0.479843 0
vt 0.721688 0.479876 0
vt 0.72177 0.239386 0
vt 0.725967 0.239353 0
vt 0.515895 0.361755 0
vt 0.00760083 0.361755 0
vt 0.533601 0.338963 0
vt 0.533601 0.618353 0
vt 0.528726 0.618282 0
vt 0.528726 0.338891 0
vt 0.560518 0.979501 0
vt 0.0522242 0.979501 0
vt 0.641186 0.240261 0
vt 0.641186 0.759566 0
vt 0.632125 0.759433 0
vt 0.632124 0.240128 0
vt 0.725967 0.490187 0
vt 0.72177 0.49022 0
vt 0.530176 0.134071 0
vt 0.529021 0.131692 0
vt 0.655738 0.0411346 0
vt 0.657139 0.0430623 0
vt 0.524147 0.136012 0
vt 0.523331 0.133703 0
vt 0.873935 0.00565955 0
vt 0.901126 0.00565955 0
vt 0.901127 0.984549 0
vt 0.873936 0.984549 0
vt 0.6573 0.217114 0
vt 0.656298 0.219285 0
vt 0.422366 0.371098 0
vt 0.424487 0.371051 0
vt 0.424487 0.383121 0
vt 0.422366 0.383075 0
vt 0.65561 0.759566 0
vt 0.65561 0.240261 0
vt 0.683902 0.476925 0
vt 0.683945 0.240598 0
vt 0.534353 0.134499 0
vt 0.6573 0.0462355 0
vt 0.664672 0.240394 0
vt 0.664671 0.759699 0
vt 0.794445 0.00566334 0
vt 0.835683 0.00566334 0
vt 0.835683 0.984545 0
vt 0.794445 0.984545 0
vt 0.943798 0.00807226 0
vt 0.985036 0.00807226 0
vt 0.985036 0.986954 0
vt 0.943797 0.986954 0
vt 0.536394 0.157766 0
vt 0.523869 0.346272 0
vt 0.523978 0.617276 0
vt 0.726357 0.246734 0
vt 0.726466 0.517738 0
vt 0.656929 0.214344 0
vt 0.717559 0.242082 0
vt 0.71751 0.478744 0

# 20 vertex normals
vn 1.62921e-07 1 -3.62341e-13
vn 1 -1.62921e-07 -1.33258e-07
vn -1.62921e-07 -1 3.62341e-13
vn 1.33258e-07 3.40631e-13 1
vn -1.33258e-07 -3.40631e-13 -1
vn 2.05313e-06 2.78442e-14 1
vn -0.870913 0.491437 1.16056e-07
vn 1.78661e-06 -6.53418e-13 -1
vn -3.66166e-06 2.34219e-13 -1
vn -3.39514e-06 9.1548e-13 1
vn 0.786162 -1.28082e-07 0.61802
vn -1 1.62921e-07 1.33258e-07
vn 1.66558e-07 0.999614 0.0277664
vn -1.66558e-07 -0.999614 -0.0277659
vn -0.870913 -0.491437 1.16849e-07
vn 0.786166 -1.28083e-07 -0.618016
vn 0.0422071 0.999109 -4.62032e-09
vn 0.0422062 -0.999109 -8.63742e-09
vn 1.59158e-07 0.999614 -0.0277666
vn -1.59158e-07 -0.999614 0.0277661

# Mesh 'Cube.007_Cube.007' with 60 faces
g Cube.007_Cube.007
usemtl DefaultMaterial
f  1/1/1 2/2/1 3/3/1
f  3/3/1 4/4/1 1/1/1
f  5/5/2 6/6/2 4/7/2
f  4/7/2 3/8/2 5/5/2
f  7/9/3 8/10/3 9/11/3
f  9/11/3 10/12/3 7/9/3
f  11/13/4 7/14/4 10/15/4
f  10/15/4 12/16/4 11/13/4
f  13/17/5 14/18/5 15/19/5
f  15/19/5 8/20/5 13/17/5
f  16/21/6 17/22/6 7/14/6
f  7/14/6 11/13/6 16/21/6
f  2/23/4 18/24/4 5/25/4
f  5/25/4 3/26/4 2/23/4
f  17/27/3 13/28/3 8/10/3
f  8/10/3 7/9/3 17/27/3
f  10/29/2 9/30/2 19/31/2
f  19/31/2 12/32/2 10/29/2
f  20/33/1 21/34/1 2/2/1
f  2/2/1 1/1/1 20/33/1
f  16/35/7 14/36/7 13/37/7
f  13/37/7 17/38/7 16/35/7
f  21/39/4 22/40/4 18/24/4
f  18/24/4 2/23/4 21/39/4
f  23/41/5 1/42/5 4/43/5
f  4/43/5 6/44/5 23/41/5
f  24/45/8 20/46/8 1/42/8
f  1/42/8 23/41/8 24/45/8
f  25/47/2 26/48/2 27/49/2
f  27/49/2 28/50/2 25/47/2
f  8/20/5 15/19/5 19/51/5
f  19/51/5 9/52/5 8/20/5
f  23/41/9 15/19/9 14/18/9
f  14/18/9 24/45/9 23/41/9
f  11/13/10 18/24/10 22/40/10
f  22/40/10 16/21/10 11/13/10
f  29/53/11 18/54/11 11/55/11
f  11/55/11 30/56/11 29/53/11
f  24/57/12 14/36/12 16/35/12
f  16/35/12 22/58/12 24/57/12
f  30/59/13 11/13/13 12/16/13
f  12/16/13 28/60/13 30/59/13
f  31/61/14 23/41/14 6/44/14
f  6/44/14 26/62/14 31/61/14
f  21/63/15 20/64/15 24/57/15
f  24/57/15 22/58/15 21/63/15
f  28/65/4 27/66/4 29/67/4
f  29/67/4 30/68/4 28/65/4
f  26/69/5 25/70/5 32/71/5
f  32/71/5 31/72/5 26/69/5
f  32/73/16 15/19/16 23/41/16
f  23/41/16 31/61/16 32/73/16
f  28/74/17 12/32/17 19/31/17
f  19/31/17 25/75/17 28/74/17
f  26/76/18 6/6/18 5/5/18
f  5/5/18 27/77/18 26/76/18
f  25/78/19 19/51/19 15/19/19
f  15/19/19 32/73/19 25/78/19
f  27/79/20 5/25/20 18/24/20
f  18/24/20 29/80/20 27/79/20

